<svg width="36" height="36" viewBox="0 0 36 36" fill="none" xmlns="http://www.w3.org/2000/svg">
<path d="M18 0.5C8.33594 0.5 0.5 8.33594 0.5 18C0.5 27.6641 8.33594 35.5 18 35.5C27.6641 35.5 35.5 27.6641 35.5 18C35.5 8.33594 27.6641 0.5 18 0.5ZM18 32.5312C9.97656 32.5312 3.46875 26.0234 3.46875 18C3.46875 9.97656 9.97656 3.46875 18 3.46875C26.0234 3.46875 32.5312 9.97656 32.5312 18C32.5312 26.0234 26.0234 32.5312 18 32.5312ZM14.5625 11.75H12.6875C12.5156 11.75 12.375 11.8906 12.375 12.0625V23.9375C12.375 24.1094 12.5156 24.25 12.6875 24.25H14.5625C14.7344 24.25 14.875 24.1094 14.875 23.9375V12.0625C14.875 11.8906 14.7344 11.75 14.5625 11.75ZM23.3125 11.75H21.4375C21.2656 11.75 21.125 11.8906 21.125 12.0625V23.9375C21.125 24.1094 21.2656 24.25 21.4375 24.25H23.3125C23.4844 24.25 23.625 24.1094 23.625 23.9375V12.0625C23.625 11.8906 23.4844 11.75 23.3125 11.75Z" fill="#E4A951"/>
</svg>
